<?xml version="1.0" encoding="UTF-8"?>
<svg id="Layer_1" xmlns="http://www.w3.org/2000/svg" version="1.1" viewBox="0 0 220 60">
  <!-- Generator: Adobe Illustrator 29.1.0, SVG Export Plug-In . SVG Version: 2.1.0 Build 142)  -->
  <defs>
    <style>
      .st0 {
        fill: #fff;
      }

      .st1 {
        fill: #a7a9ac;
      }
    </style>
  </defs>
  <g>
    <rect class="st0" x="81.94" y="10.21" width="7.57" height="33.03"/>
    <rect class="st0" x="138.88" y="10.21" width="7.57" height="33.03"/>
    <rect class="st0" x="179.37" y="10.21" width="7.57" height="33.03"/>
    <polygon class="st0" points="176.02 10.21 167.24 10.21 157.78 24.03 157.78 10.21 150.21 10.21 150.21 43.25 157.78 43.25 157.78 29.43 167.24 43.25 176.02 43.25 164.28 26.73 176.02 10.21"/>
    <polygon class="st0" points="100.83 35.68 100.83 10.21 93.27 10.21 93.27 43.25 113.17 43.25 113.17 35.68 100.83 35.68"/>
    <polygon class="st0" points="123.35 35.68 123.35 10.21 115.78 10.21 115.78 43.25 135.68 43.25 135.68 35.68 123.35 35.68"/>
    <polygon class="st0" points="66.83 10.21 66.83 10.21 60.97 27.76 55.11 10.21 55.1 10.21 43.75 10.21 43.75 43.25 51.32 43.25 51.32 22.11 59.01 43.25 62.92 43.25 70.61 22.11 70.61 43.25 78.18 43.25 78.18 10.21 66.83 10.21"/>
    <polygon class="st0" points="210.01 10.21 210.01 31.35 202.33 10.21 190.7 10.21 190.7 43.25 198.27 43.25 198.27 22.11 205.96 43.25 206.23 43.25 206.23 43.25 217.58 43.25 217.58 10.21 210.01 10.21"/>
  </g>
  <g>
    <path class="st0" d="M33.4,32.87c.37-.37.72-.66,1.07-.88.35-.22.61-.33.8-.33.15,0,.22.09.22.28,0,.15-.13.49-.39,1.02-.26.53-.6,1.16-1.02,1.87-.42.71-.89,1.5-1.4,2.34-.51.84-1.03,1.65-1.54,2.42-.29.4-.65.87-1.07,1.4-.42.53-.9,1.04-1.43,1.51-.53.48-1.07.88-1.62,1.21-.55.33-1.1.5-1.65.5-.62,0-1.25-.33-1.87-.99-.62-.66-.94-1.71-.94-3.14,0-.99.14-2.04.41-3.16s.6-2.2.96-3.25c.37-1.05.74-2,1.13-2.86.39-.86.67-1.49.85-1.9.04-.07.05-.13.05-.17s.02-.07.06-.11c-.22.18-.69.74-1.4,1.68-.72.94-1.52,2.09-2.42,3.47-.9,1.38-1.81,2.88-2.72,4.51-.92,1.63-1.69,3.25-2.31,4.87,0,.15-.08.27-.25.38s-.36.17-.58.17-.47-.06-.74-.19c-.27-.13-.53-.35-.77-.66-.24-.31-.43-.73-.58-1.27-.15-.53-.22-1.2-.22-2.01,0-1.17.19-2.64.58-4.4s1.11-3.94,2.17-6.55c-.22.18-.69.74-1.4,1.68-.72.94-1.51,2.09-2.39,3.47-.88,1.38-1.78,2.88-2.7,4.51-.92,1.63-1.67,3.25-2.26,4.87-.07.37-.33.55-.77.55s-.92-.29-1.43-.88c-.51-.59-.77-1.65-.77-3.19,0-1.43.34-3.33,1.02-5.69.68-2.37,1.93-5.36,3.77-8.99.15-.33.44-.5.88-.5.4,0,.84.13,1.32.39.48.26.9.57,1.27.94-.29.44-.59.93-.88,1.49-.29.55-.58,1.09-.85,1.62s-.5,1.04-.66,1.54-.25.91-.25,1.24c0,.18.02.31.05.39.04-.33.16-.75.36-1.27.2-.51.43-1.04.69-1.6.26-.55.53-1.11.83-1.68.29-.57.57-1.11.83-1.62.22.26.4.5.55.74.15.24.22.47.22.69,0,.15-.07.36-.22.63-.15.27-.31.58-.5.91-.18.33-.39.66-.6.99-.22.33-.39.61-.5.83,1.14-1.65,2.3-3.03,3.49-4.15,1.19-1.12,2.28-1.68,3.27-1.68.81,0,1.5.28,2.09.85.59.57.88,1.2.88,1.9,0,.51-.24,1.27-.71,2.28-.48,1.01-.92,2.01-1.32,3,.66-1.03,1.34-2.02,2.04-2.97.7-.95,1.4-1.81,2.12-2.56.72-.75,1.42-1.36,2.12-1.82.7-.46,1.36-.69,1.98-.69.77,0,1.47.28,2.09.85.62.57.94,1.22.94,1.95,0,.37-.25,1.11-.74,2.23s-1.05,2.37-1.65,3.74c-.6,1.38-1.16,2.77-1.65,4.18-.5,1.41-.76,2.61-.8,3.6.73-.44,1.41-1.05,2.04-1.84.62-.79,1.21-1.6,1.76-2.42.55-.83,1.08-1.63,1.6-2.42.51-.79,1.01-1.4,1.49-1.84ZM16.84,32.1l.11-.22v-.11c-.4.88-.72,1.66-.96,2.34-.24.68-.45,1.45-.63,2.31-.18.86-.27,1.71-.27,2.56,0,.59.07,1.03.22,1.32,0-.59.06-1.28.17-2.09.11-.81.25-1.61.41-2.42s.33-1.55.5-2.23c.17-.68.32-1.16.47-1.46ZM25.2,33.59c.04-.11.06-.18.08-.22.02-.04.03-.07.03-.11.04,0-.05.19-.25.58-.2.38-.42.88-.66,1.49-.24.6-.46,1.28-.66,2.04-.2.75-.3,1.51-.3,2.28,0,.4.09.73.27.99,0-.44.06-1.01.17-1.71.11-.7.25-1.4.41-2.12.17-.72.33-1.38.5-1.98.17-.61.3-1.02.41-1.24Z"/>
    <path class="st0" d="M42.81,25.44c.04-.37.33-.55.88-.55.29,0,.61.06.96.19.35.13.68.3.99.52.31.22.58.47.8.74.22.28.33.56.33.85,0,.04,0,.07-.03.11s-.03.09-.03.17l-.83,3.03c-.44,1.69-.92,3.46-1.43,5.31-.51,1.85-1.07,3.68-1.68,5.47-.6,1.8-1.27,3.52-1.98,5.17s-1.51,3.1-2.39,4.35c-.88,1.25-1.85,2.24-2.92,2.97-1.06.73-2.22,1.1-3.47,1.1-.66,0-1.25-.15-1.76-.44-.51-.29-.95-.65-1.32-1.07-.37-.42-.64-.87-.83-1.35-.18-.48-.27-.9-.27-1.27,0-.55.2-.83.6-.83.26,0,.49.14.69.41.2.28.45.41.74.41,1.8,0,3.37-.86,4.73-2.59,1.36-1.72,2.68-4.2,3.96-7.43-.88,1.14-1.65,1.93-2.31,2.39-.66.46-1.28.69-1.87.69-.62,0-1.17-.13-1.62-.39-.46-.26-.83-.6-1.1-1.02-.27-.42-.48-.91-.6-1.46-.13-.55-.19-1.12-.19-1.71,0-1.87.43-4.04,1.29-6.52.86-2.48,1.88-5.01,3.05-7.62.07-.07.15-.15.22-.22.07-.07.2-.11.39-.11.26,0,.48.04.66.11.04.04.08.08.14.14s.12.08.19.08c.18.15.34.25.47.3.13.06.19.12.19.19-.29.44-.59.97-.88,1.59-.29.62-.57,1.26-.83,1.9-.26.64-.48,1.24-.66,1.79-.18.55-.29.99-.33,1.32.33-.84.71-1.79,1.13-2.83.42-1.05.87-2.04,1.35-3,.04-.07.09-.18.17-.33.07-.15.17-.22.27-.22.29.37.56.61.8.74.24.13.39.39.47.8-.04.11-.05.27-.03.47.02.2,0,.39-.08.58-.4.7-.85,1.59-1.35,2.7s-.95,2.25-1.38,3.44c-.42,1.19-.78,2.35-1.07,3.47-.29,1.12-.44,2.04-.44,2.78v.44c.66-.37,1.29-.85,1.9-1.46.61-.61,1.18-1.28,1.73-2.04.55-.75,1.06-1.51,1.54-2.28.48-.77.9-1.5,1.27-2.2.73-2.71,1.32-5.32,1.76-7.81ZM39.67,47.06c.07-.15.11-.26.11-.33v-.11c-.15.26-.26.47-.33.63-.07.17-.15.32-.22.47-.07.15-.13.24-.17.27-.18.29-.44.71-.77,1.24-.33.53-.68,1.04-1.04,1.54-.37.5-.69.93-.96,1.29-.28.37-.45.55-.52.55.04,0,.2-.13.5-.38.95-.92,1.71-1.81,2.26-2.67.55-.86.94-1.7,1.16-2.5Z"/>
  </g>
  <g>
    <path class="st1" d="M32.65,32.12c.37-.37.72-.66,1.07-.88.35-.22.61-.33.8-.33.15,0,.22.09.22.28,0,.15-.13.49-.39,1.02-.26.53-.6,1.16-1.02,1.87-.42.71-.89,1.5-1.4,2.34-.51.84-1.03,1.65-1.54,2.42-.29.4-.65.87-1.07,1.4-.42.53-.9,1.04-1.43,1.51-.53.48-1.07.88-1.62,1.21-.55.33-1.1.5-1.65.5-.62,0-1.25-.33-1.87-.99-.62-.66-.94-1.71-.94-3.14,0-.99.14-2.04.41-3.16s.6-2.2.96-3.25c.37-1.05.74-2,1.13-2.86.39-.86.67-1.49.85-1.9.04-.07.05-.13.05-.17s.02-.07.06-.11c-.22.18-.69.74-1.4,1.68-.72.94-1.52,2.09-2.42,3.47-.9,1.38-1.81,2.88-2.72,4.51-.92,1.63-1.69,3.25-2.31,4.87,0,.15-.08.27-.25.38s-.36.17-.58.17-.47-.06-.74-.19c-.27-.13-.53-.35-.77-.66-.24-.31-.43-.73-.58-1.27-.15-.53-.22-1.2-.22-2.01,0-1.17.19-2.64.58-4.4s1.11-3.94,2.17-6.55c-.22.18-.69.74-1.4,1.68-.72.94-1.51,2.09-2.39,3.47-.88,1.38-1.78,2.88-2.7,4.51-.92,1.63-1.67,3.25-2.26,4.87-.07.37-.33.55-.77.55s-.92-.29-1.43-.88c-.51-.59-.77-1.65-.77-3.19,0-1.43.34-3.33,1.02-5.69.68-2.37,1.93-5.36,3.77-8.99.15-.33.44-.5.88-.5.4,0,.84.13,1.32.39.48.26.9.57,1.27.94-.29.44-.59.93-.88,1.49-.29.55-.58,1.09-.85,1.62s-.5,1.04-.66,1.54-.25.91-.25,1.24c0,.18.02.31.05.39.04-.33.16-.75.36-1.27.2-.51.43-1.04.69-1.6.26-.55.53-1.11.83-1.68.29-.57.57-1.11.83-1.62.22.26.4.5.55.74.15.24.22.47.22.69,0,.15-.07.36-.22.63-.15.27-.31.58-.5.91-.18.33-.39.66-.6.99-.22.33-.39.61-.5.83,1.14-1.65,2.3-3.03,3.49-4.15,1.19-1.12,2.28-1.68,3.27-1.68.81,0,1.5.28,2.09.85.59.57.88,1.2.88,1.9,0,.51-.24,1.27-.71,2.28-.48,1.01-.92,2.01-1.32,3,.66-1.03,1.34-2.02,2.04-2.97.7-.95,1.4-1.81,2.12-2.56.72-.75,1.42-1.36,2.12-1.82.7-.46,1.36-.69,1.98-.69.77,0,1.47.28,2.09.85.62.57.94,1.22.94,1.95,0,.37-.25,1.11-.74,2.23s-1.05,2.37-1.65,3.74c-.6,1.38-1.16,2.77-1.65,4.18-.5,1.41-.76,2.61-.8,3.6.73-.44,1.41-1.05,2.04-1.84.62-.79,1.21-1.6,1.76-2.42.55-.83,1.08-1.63,1.6-2.42.51-.79,1.01-1.4,1.49-1.84ZM16.09,31.35l.11-.22v-.11c-.4.88-.72,1.66-.96,2.34-.24.68-.45,1.45-.63,2.31-.18.86-.27,1.71-.27,2.56,0,.59.07,1.03.22,1.32,0-.59.06-1.28.17-2.09.11-.81.25-1.61.41-2.42s.33-1.55.5-2.23c.17-.68.32-1.16.47-1.46ZM24.45,32.83c.04-.11.06-.18.08-.22.02-.04.03-.07.03-.11.04,0-.05.19-.25.58-.2.38-.42.88-.66,1.49-.24.6-.46,1.28-.66,2.04-.2.75-.3,1.51-.3,2.28,0,.4.09.73.27.99,0-.44.06-1.01.17-1.71.11-.7.25-1.4.41-2.12.17-.72.33-1.38.5-1.98.17-.61.3-1.02.41-1.24Z"/>
    <path class="st1" d="M42.05,24.69c.04-.37.33-.55.88-.55.29,0,.61.06.96.19.35.13.68.3.99.52.31.22.58.47.8.74.22.28.33.56.33.85,0,.04,0,.07-.03.11s-.03.09-.03.17l-.83,3.03c-.44,1.69-.92,3.46-1.43,5.31-.51,1.85-1.07,3.68-1.68,5.47-.6,1.8-1.27,3.52-1.98,5.17s-1.51,3.1-2.39,4.35c-.88,1.25-1.85,2.24-2.92,2.97-1.06.73-2.22,1.1-3.47,1.1-.66,0-1.25-.15-1.76-.44-.51-.29-.95-.65-1.32-1.07-.37-.42-.64-.87-.83-1.35-.18-.48-.27-.9-.27-1.27,0-.55.2-.83.6-.83.26,0,.49.14.69.41.2.28.45.41.74.41,1.8,0,3.37-.86,4.73-2.59,1.36-1.72,2.68-4.2,3.96-7.43-.88,1.14-1.65,1.93-2.31,2.39-.66.46-1.28.69-1.87.69-.62,0-1.17-.13-1.62-.39-.46-.26-.83-.6-1.1-1.02-.27-.42-.48-.91-.6-1.46-.13-.55-.19-1.12-.19-1.71,0-1.87.43-4.04,1.29-6.52.86-2.48,1.88-5.01,3.05-7.62.07-.07.15-.15.22-.22.07-.07.2-.11.39-.11.26,0,.48.04.66.11.04.04.08.08.14.14s.12.08.19.08c.18.15.34.25.47.3.13.06.19.12.19.19-.29.44-.59.97-.88,1.59-.29.62-.57,1.26-.83,1.9-.26.64-.48,1.24-.66,1.79-.18.55-.29.99-.33,1.32.33-.84.71-1.79,1.13-2.83.42-1.05.87-2.04,1.35-3,.04-.07.09-.18.17-.33.07-.15.17-.22.27-.22.29.37.56.61.8.74.24.13.39.39.47.8-.04.11-.05.27-.03.47.02.2,0,.39-.08.58-.4.7-.85,1.59-1.35,2.7s-.95,2.25-1.38,3.44c-.42,1.19-.78,2.35-1.07,3.47-.29,1.12-.44,2.04-.44,2.78v.44c.66-.37,1.29-.85,1.9-1.46.61-.61,1.18-1.28,1.73-2.04.55-.75,1.06-1.51,1.54-2.28.48-.77.9-1.5,1.27-2.2.73-2.71,1.32-5.32,1.76-7.81ZM38.92,46.31c.07-.15.11-.26.11-.33v-.11c-.15.26-.26.47-.33.63-.07.17-.15.32-.22.47-.07.15-.13.24-.17.27-.18.29-.44.71-.77,1.24-.33.53-.68,1.04-1.04,1.54-.37.5-.69.93-.96,1.29-.28.37-.45.55-.52.55.04,0,.2-.13.5-.38.95-.92,1.71-1.81,2.26-2.67.55-.86.94-1.7,1.16-2.5Z"/>
  </g>
</svg>