<?xml version="1.0" encoding="UTF-8"?>
<svg id="Layer_1" xmlns="http://www.w3.org/2000/svg" version="1.1" viewBox="0 0 220 60">
  <!-- Generator: Adobe Illustrator 29.1.0, SVG Export Plug-In . SVG Version: 2.1.0 Build 142)  -->
  <defs>
    <style>
      .st0 {
        fill: #004185;
      }

      .st1 {
        isolation: isolate;
      }

      .st2 {
        fill: #a7a9ac;
      }
    </style>
  </defs>
  <g>
    <rect class="st0" x="80.41" y="11.83" width="7.6" height="33.17"/>
    <rect class="st0" x="137.58" y="11.83" width="7.6" height="33.17"/>
    <rect class="st0" x="178.24" y="11.83" width="7.6" height="33.17"/>
    <polygon class="st0" points="174.87 11.83 166.06 11.83 156.56 25.7 156.56 11.83 148.96 11.83 148.96 45 156.56 45 156.56 31.13 166.06 45 174.87 45 163.09 28.42 174.87 11.83"/>
    <polygon class="st0" points="99.38 37.4 99.38 11.83 91.79 11.83 91.79 45 111.77 45 111.77 37.4 99.38 37.4"/>
    <polygon class="st0" points="121.99 37.4 121.99 11.83 114.39 11.83 114.39 45 134.37 45 134.37 37.4 121.99 37.4"/>
    <polygon class="st0" points="65.25 11.83 65.24 11.83 59.36 29.45 53.47 11.83 53.47 11.83 42.08 11.83 42.08 45 49.67 45 49.67 23.78 57.39 45 61.32 45 69.04 23.78 69.04 45 76.64 45 76.64 11.83 65.25 11.83"/>
    <polygon class="st0" points="209 11.83 209 33.05 201.28 11.83 189.61 11.83 189.61 45 197.21 45 197.21 23.78 204.93 45 205.2 45 205.21 45 216.6 45 216.6 11.83 209 11.83"/>
  </g>
  <g class="st1">
    <g class="st1">
      <path class="st2" d="M30.84,33.5c.37-.37.73-.66,1.08-.88.35-.22.62-.33.8-.33.15,0,.22.09.22.28,0,.15-.13.49-.39,1.02-.26.53-.6,1.16-1.02,1.88-.42.72-.89,1.5-1.41,2.35-.52.85-1.03,1.66-1.55,2.43-.29.41-.65.88-1.08,1.41-.42.53-.9,1.04-1.44,1.52-.53.48-1.08.88-1.63,1.21-.55.33-1.1.5-1.66.5-.63,0-1.25-.33-1.88-.99-.63-.66-.94-1.71-.94-3.15,0-.99.14-2.05.41-3.18.28-1.12.6-2.21.97-3.26.37-1.05.75-2.01,1.13-2.87s.67-1.5.86-1.91c.04-.07.06-.13.06-.17s.02-.07.06-.11c-.22.18-.69.75-1.41,1.69-.72.94-1.53,2.1-2.43,3.48-.9,1.38-1.81,2.89-2.73,4.53-.92,1.64-1.69,3.27-2.32,4.89,0,.15-.08.28-.25.39-.17.11-.36.17-.58.17s-.47-.06-.75-.19c-.28-.13-.53-.35-.77-.66-.24-.31-.43-.74-.58-1.27-.15-.53-.22-1.21-.22-2.02,0-1.18.19-2.65.58-4.42s1.11-3.96,2.18-6.57c-.22.18-.69.75-1.41,1.69-.72.94-1.52,2.1-2.4,3.48s-1.79,2.89-2.71,4.53c-.92,1.64-1.68,3.27-2.26,4.89-.07.37-.33.55-.77.55s-.92-.29-1.44-.88c-.52-.59-.77-1.66-.77-3.2,0-1.44.34-3.34,1.02-5.72.68-2.38,1.94-5.39,3.78-9.03.15-.33.44-.5.88-.5.4,0,.85.13,1.33.39.48.26.9.57,1.27.94-.3.44-.59.94-.88,1.49-.29.55-.58,1.1-.86,1.63-.28.53-.5,1.05-.66,1.55-.17.5-.25.91-.25,1.24,0,.19.02.31.06.39.04-.33.16-.75.36-1.27.2-.51.43-1.05.69-1.6.26-.55.53-1.11.83-1.68.29-.57.57-1.11.83-1.63.22.26.4.51.55.75.15.24.22.47.22.69,0,.15-.07.36-.22.63-.15.28-.31.58-.5.91-.18.33-.39.66-.61.99-.22.33-.39.61-.5.83,1.14-1.66,2.31-3.05,3.51-4.17,1.2-1.12,2.29-1.69,3.29-1.69.81,0,1.51.29,2.1.86.59.57.88,1.21.88,1.91,0,.52-.24,1.28-.72,2.29-.48,1.01-.92,2.02-1.33,3.01.66-1.03,1.34-2.03,2.04-2.98.7-.96,1.41-1.81,2.13-2.57.72-.75,1.43-1.36,2.13-1.82.7-.46,1.36-.69,1.99-.69.77,0,1.47.29,2.1.86.63.57.94,1.22.94,1.96,0,.37-.25,1.11-.75,2.24-.5,1.12-1.05,2.38-1.66,3.76-.61,1.38-1.16,2.78-1.66,4.2-.5,1.42-.77,2.62-.8,3.62.74-.44,1.42-1.06,2.04-1.85.63-.79,1.22-1.6,1.77-2.43.55-.83,1.09-1.64,1.6-2.43.52-.79,1.01-1.41,1.49-1.85ZM14.22,32.73l.11-.22v-.11c-.41.88-.73,1.67-.97,2.35-.24.68-.45,1.46-.64,2.32-.18.87-.28,1.72-.28,2.57,0,.59.07,1.03.22,1.33,0-.59.06-1.29.17-2.1.11-.81.25-1.62.41-2.43.17-.81.33-1.56.5-2.24.17-.68.32-1.17.47-1.46ZM22.61,34.22c.04-.11.06-.18.08-.22.02-.04.03-.07.03-.11.04,0-.05.19-.25.58-.2.39-.42.88-.66,1.49-.24.61-.46,1.29-.66,2.04-.2.75-.3,1.52-.3,2.29,0,.41.09.74.28,1,0-.44.06-1.01.17-1.71.11-.7.25-1.41.41-2.13.17-.72.33-1.38.5-1.99.17-.61.3-1.02.41-1.24Z"/>
      <path class="st2" d="M40.29,26.04c.04-.37.33-.55.88-.55.29,0,.62.06.97.19.35.13.68.3.99.52.31.22.58.47.8.75.22.28.33.56.33.86,0,.04,0,.07-.03.11-.02.04-.03.09-.03.17l-.83,3.04c-.44,1.69-.92,3.47-1.44,5.33-.52,1.86-1.08,3.69-1.69,5.5-.61,1.81-1.27,3.54-1.99,5.19-.72,1.66-1.52,3.11-2.4,4.36s-1.86,2.25-2.93,2.98c-1.07.74-2.23,1.1-3.48,1.1-.66,0-1.25-.15-1.77-.44-.52-.3-.96-.65-1.33-1.08-.37-.42-.64-.88-.83-1.35-.18-.48-.28-.9-.28-1.27,0-.55.2-.83.61-.83.26,0,.49.14.69.41.2.28.45.42.75.42,1.8,0,3.39-.87,4.75-2.6,1.36-1.73,2.69-4.22,3.98-7.46-.88,1.14-1.66,1.94-2.32,2.4-.66.46-1.29.69-1.88.69-.63,0-1.17-.13-1.63-.39-.46-.26-.83-.6-1.1-1.02-.28-.42-.48-.91-.61-1.46-.13-.55-.19-1.12-.19-1.71,0-1.88.43-4.06,1.3-6.55.86-2.49,1.89-5.04,3.07-7.65l.22-.22c.07-.07.2-.11.39-.11.26,0,.48.04.66.11.04.04.08.08.14.14.06.06.12.08.19.08.18.15.34.25.47.3.13.06.19.12.19.19-.3.44-.59.98-.88,1.6-.3.63-.57,1.26-.83,1.91-.26.64-.48,1.24-.66,1.79-.18.55-.29,1-.33,1.33.33-.85.71-1.79,1.13-2.84.42-1.05.87-2.05,1.35-3.01.04-.07.09-.18.17-.33.07-.15.17-.22.28-.22.29.37.56.62.8.75.24.13.4.4.47.8-.04.11-.05.27-.03.47.02.2,0,.4-.08.58-.41.7-.86,1.6-1.35,2.71-.5,1.1-.96,2.26-1.38,3.45-.42,1.2-.78,2.36-1.08,3.48-.29,1.12-.44,2.05-.44,2.79v.44c.66-.37,1.3-.86,1.91-1.46.61-.61,1.19-1.29,1.74-2.04.55-.75,1.07-1.52,1.55-2.29.48-.77.9-1.51,1.27-2.21.74-2.72,1.33-5.34,1.77-7.84ZM37.14,47.75c.07-.15.11-.26.11-.33v-.11c-.15.26-.26.47-.33.64-.07.17-.15.32-.22.47-.07.15-.13.24-.17.28-.19.29-.44.71-.77,1.24-.33.53-.68,1.05-1.05,1.55-.37.5-.69.93-.97,1.3-.28.37-.45.55-.52.55.04,0,.2-.13.5-.39.96-.92,1.71-1.81,2.26-2.68.55-.87.94-1.7,1.16-2.51Z"/>
    </g>
  </g>
</svg>