<?xml version="1.0" encoding="UTF-8"?>
<svg id="Layer_1" xmlns="http://www.w3.org/2000/svg" version="1.1" viewBox="0 0 220 60">
  <!-- Generator: Adobe Illustrator 29.1.0, SVG Export Plug-In . SVG Version: 2.1.0 Build 142)  -->
  <defs>
    <style>
      .st0, .st1 {
        font-family: OraqleScript, 'Oraqle Script';
        font-size: 55.02px;
      }

      .st0, .st2 {
        fill: #fff;
      }

      .st1 {
        fill: #a7a9ac;
      }
    </style>
  </defs>
  <g>
    <rect class="st2" x="81.94" y="10.21" width="7.57" height="33.03"/>
    <rect class="st2" x="138.88" y="10.21" width="7.57" height="33.03"/>
    <rect class="st2" x="179.37" y="10.21" width="7.57" height="33.03"/>
    <polygon class="st2" points="176.02 10.21 167.24 10.21 157.78 24.03 157.78 10.21 150.21 10.21 150.21 43.25 157.78 43.25 157.78 29.43 167.24 43.25 176.02 43.25 164.28 26.73 176.02 10.21"/>
    <polygon class="st2" points="100.83 35.68 100.83 10.21 93.27 10.21 93.27 43.25 113.17 43.25 113.17 35.68 100.83 35.68"/>
    <polygon class="st2" points="123.35 35.68 123.35 10.21 115.78 10.21 115.78 43.25 135.68 43.25 135.68 35.68 123.35 35.68"/>
    <polygon class="st2" points="66.83 10.21 66.83 10.21 60.97 27.76 55.11 10.21 55.1 10.21 43.75 10.21 43.75 43.25 51.32 43.25 51.32 22.11 59.01 43.25 62.92 43.25 70.61 22.11 70.61 43.25 78.18 43.25 78.18 10.21 66.83 10.21"/>
    <polygon class="st2" points="210.01 10.21 210.01 31.35 202.33 10.21 190.7 10.21 190.7 43.25 198.27 43.25 198.27 22.11 205.96 43.25 206.23 43.25 206.23 43.25 217.58 43.25 217.58 10.21 210.01 10.21"/>
  </g>
  <text class="st0" transform="translate(5.12 43.87)"><tspan x="0" y="0">my</tspan></text>
  <text class="st1" transform="translate(4.37 43.12)"><tspan x="0" y="0">my</tspan></text>
</svg>