<?xml version="1.0" encoding="UTF-8"?>
<!DOCTYPE svg PUBLIC "-//W3C//DTD SVG 1.1//EN" "http://www.w3.org/Graphics/SVG/1.1/DTD/svg11.dtd">
<!-- Creator: CorelDRAW -->
<svg xmlns="http://www.w3.org/2000/svg" xml:space="preserve" width="144px" height="144px" version="1.1" style="shape-rendering:geometricPrecision; text-rendering:geometricPrecision; image-rendering:optimizeQuality; fill-rule:evenodd; clip-rule:evenodd"
viewBox="0 0 144 144"
 xmlns:xlink="http://www.w3.org/1999/xlink"
 xmlns:xodm="http://www.corel.com/coreldraw/odm/2003">
 <defs>
  <style type="text/css">
   <![CDATA[
    .fil0 {fill:black}
    .fil1 {fill:white}
    .fil9 {fill:black;fill-opacity:0.101961}
    .fil3 {fill:white;fill-opacity:0.301961}
    .fil4 {fill:white;fill-rule:nonzero;fill-opacity:0.301961}
    .fil5 {fill:url(#id0)}
    .fil7 {fill:url(#id1)}
    .fil6 {fill:url(#id2)}
    .fil2 {fill:url(#id3)}
    .fil8 {fill:url(#id4);fill-rule:nonzero}
   ]]>
  </style>
  <linearGradient id="id0" gradientUnits="userSpaceOnUse" x1="6403.78" y1="12643.48" x2="8791.02" y2="12643.48">
   <stop offset="0" style="stop-opacity:0; stop-color:white"/>
   <stop offset="1" style="stop-opacity:0.2; stop-color:black"/>
  </linearGradient>
  <linearGradient id="id1" gradientUnits="userSpaceOnUse" xlink:href="#id0" x1="3235.77" y1="6650.33" x2="4629.15" y2="6650.33">
  </linearGradient>
  <linearGradient id="id2" gradientUnits="userSpaceOnUse" xlink:href="#id0" x1="1710.04" y1="3725.97" x2="1996.31" y2="3725.97">
  </linearGradient>
  <linearGradient id="id3" gradientUnits="userSpaceOnUse" xlink:href="#id0" x1="88.8" y1="-203.99" x2="88.8" y2="-298.26">
  </linearGradient>
  <linearGradient id="id4" gradientUnits="userSpaceOnUse" xlink:href="#id0" x1="5920.41" y1="29628.18" x2="5920.41" y2="17796.7">
  </linearGradient>
 </defs>
 <g id="Layer_x0020_1">
  <metadata id="CorelCorpID_0Corel-Layer"/>
  <g id="_2702345238192">
   <path class="fil0" d="M134.16 63.64c-1.2,-4.46 -3.07,-8.55 -5.3,-12.29 20.73,-48.73 -53.73,-71.01 -51.2,-23.73 0,0 0.06,0 0.18,0.06 -5.24,0.42 -10.54,1.45 -15.96,3.25 -7.71,2.59 -14.7,6.45 -20.84,11.09 -24.94,-35.72 -49.57,21.44 -23.19,33.73 -2.35,8.73 -2.59,17.83 -0.24,26.68 3.91,14.58 14.09,25.48 27.41,31.33 12.89,12.34 34.33,12.65 51.2,-0.24 0.84,-0.67 1.68,-1.33 2.47,-2.05 26.86,-13.19 42.46,-41.93 35.47,-67.95l0 0.12z"/>
   <path class="fil1" d="M128.86 65.45c-7.16,-26.93 -37.46,-40.6 -67.58,-30.54 -30.06,10.06 -48.67,40 -41.44,66.86 3.43,12.83 12.05,22.59 23.43,28.25 11.8,13.07 33.01,13.98 49.45,1.39 1.09,-0.85 2.17,-1.75 3.19,-2.71 25,-12.35 39.46,-39.1 32.95,-63.31l0 0.06zm-77.34 36.56c-0.66,1.87 -4.88,5.42 -7.59,5.54 -2.05,0.12 -7.35,-3.43 -7.47,-5 -0.06,-1.2 0.66,-1.86 1.69,-1.92l10.72 -1.81c1.69,-0.12 3.31,1.51 2.65,3.19zm-30.84 -17.23c-1.32,-7.47 2.53,-17.1 10.6,-18.55 10.84,-1.93 16.75,6.21 16.33,13.8 -0.25,3.97 -8.26,4.45 -15.91,15.84 -3.07,4.64 -9.99,-5.3 -11.02,-11.09zm56.38 21.87c-0.24,-0.06 -0.9,0.06 -1.08,0.42 -4.22,7.77 -13.38,18.74 -23.44,18.25 -7.46,-0.36 -14.15,-4.82 -17.7,-8.43 -0.19,-0.18 -0.73,-0.18 -0.91,0 -0.84,0.78 -2.11,1.33 -2.59,1.14 0.54,0 1.69,-0.78 2.41,-2.16 0.66,-1.33 0.24,-3.02 0.18,-3.98 0.36,0.78 0.85,2.05 0.78,3.13 0,0.18 0.19,0.73 0.31,0.79 2.77,2.41 6.62,4.69 14.75,3.55 8.8,-1.27 19.16,-8.43 24.82,-13.07 0.24,-0.18 0.42,-0.84 0.18,-1.09 -1.56,-1.44 -2.59,-3.43 -2.35,-4.33 0.18,1.08 1.93,3.13 4.82,4.15 2.83,0.97 5.97,-0.24 7.83,-0.54 -1.99,1.27 -5.48,3.13 -8.19,2.23l0.18 -0.06zm5.12 -18.55c-13.97,-10.18 -23.73,-7.29 -25.72,-11.93 -3.79,-8.73 -0.24,-20.96 13.43,-23.37 10.24,-1.81 18.98,8.01 20.6,17.41 1.33,7.29 -2.65,22.1 -8.31,17.95l0 -0.06z"/>
   <path class="fil2" d="M54.53 38.04c1.69,-0.72 3.44,-1.38 5.18,-1.99 30.06,-10.06 60.36,3.62 67.59,30.54 7.17,26.93 -11.45,56.2 -41.63,66.26 -0.6,0.18 -1.2,0.42 -1.8,0.54 26.98,-11.56 11.68,-36.74 30.18,-63.18 9.63,-13.86 -30.06,-41.08 -59.58,-32.17l0.06 0z"/>
   <path class="fil3" d="M82.42 13.53c10.54,-20.18 49.94,-6.09 45.9,24.27 -2.17,-24.82 -32.1,-36.5 -45.9,-24.27z"/>
   <path class="fil3" d="M7.91 58.1c-0.96,-18.07 13.67,-36.32 31.26,-15.6 -0.3,0.24 -0.96,0.78 -1.5,1.51 -15.24,-17.05 -28.92,-2.72 -29.76,14.09l0 0z"/>
   <path class="fil4" d="M63.45 76.35c0,0 -4.34,-0.78 -4.94,-1.5 -0.6,-0.79 -5.54,-12.65 9.33,-18.5 -4.69,4.22 -8.37,11.45 -4.39,20l0 0z"/>
   <path class="fil4" d="M28.99 89.66c0,0 -1.14,3.5 -1.92,3.5 -0.79,0 -12.17,-15.54 2.59,-23.62 -6.21,8.26 -4.46,15.42 -0.67,20.12z"/>
   <path class="fil5" d="M91.88 68.7c-1.75,-9.94 -11.02,-20.36 -21.87,-18.43 -14.45,2.59 -18.31,15.54 -14.27,24.82 0.18,0.48 0.54,0.9 0.96,1.26 0,-0.06 -0.12,-0.18 -0.18,-0.24 -3.79,-8.73 -0.24,-20.96 13.43,-23.37 10.24,-1.81 18.98,8.01 20.6,17.41 1.03,5.9 -1.32,16.5 -5.18,18.31 4.76,-0.42 7.71,-12.95 6.57,-19.7l-0.06 -0.06z"/>
   <g>
    <path class="fil6" d="M31.76 95.87c-0.36,0.54 -0.78,0.9 -1.26,1.08 0.66,-0.06 1.32,-0.42 1.81,-1.2 4.03,-6.03 8.13,-9.16 11.32,-11.33 -3.07,2.05 -7.53,5 -11.87,11.51l0 -0.06z"/>
    <path class="fil7" d="M31.89 64.18c-8.62,1.51 -12.71,11.81 -11.33,19.7 0,0.18 0.06,0.36 0.12,0.54 -1.2,-7.35 2.65,-16.74 10.6,-18.19 10.84,-1.93 16.75,6.21 16.33,13.8 -0.06,1.44 -1.27,2.47 -3.08,3.73 2.71,-1.81 4.58,-3.01 4.7,-4.94 0.54,-8.01 -5.84,-16.68 -17.34,-14.7l0 0.06z"/>
   </g>
   <path class="fil8" d="M60.07 137.79c-5.36,-1.68 -10.24,-4.64 -14.09,-8.91 -11.57,-5.79 -20.42,-15.72 -23.91,-28.68 -1.39,-5.12 -1.75,-10.3 -1.39,-15.48 -0.66,-4.15 0.12,-8.85 2.41,-12.59 2.05,-6.08 5.18,-11.92 9.28,-17.22 -11.39,13.31 -16.45,30.66 -12.11,46.86 3.43,12.71 11.99,22.47 23.25,28.07 4.46,4.94 10.18,8.07 16.56,9.46l0 -1.57 0 0.06z"/>
   <path class="fil9" d="M43.99 107.55c-1.87,0.12 -6.32,-2.71 -7.23,-4.45 -0.24,0.3 -0.42,0.72 -0.36,1.32 0.12,1.63 5.42,5.12 7.47,5 2.71,-0.18 6.87,-3.67 7.59,-5.54 0.18,-0.54 0.12,-1.02 0,-1.51 -1.08,1.93 -4.94,5.06 -7.47,5.24l0 -0.06z"/>
   <path id="Left_Pupil" class="fil1" d="M44.41 80.87c-2.23,1.26 -4.82,1.08 -5.9,-0.42 -1.08,-1.51 0,-3.8 2.23,-5.06 0.9,-0.48 2.29,-0.67 2.29,-0.67l0 0c-0.72,0.31 -1.09,1.03 -0.79,1.51 0.31,0.48 1.15,0.66 1.87,0.3 0.72,-0.3 1.09,-1.02 0.78,-1.5 -0.11,-0.24 -0.54,-0.43 -0.84,-0.43 -1.38,-0.18 -3.19,0 -4.7,0.85 -2.71,1.5 -3.79,4.21 -2.53,5.96 1.27,1.81 4.46,1.99 7.11,0.48 1.57,-0.84 2.47,-2.11 2.83,-3.37 -0.48,0.84 -1.26,1.69 -2.29,2.29l-0.06 0.06z"/>
   <path id="Right_Pupil" class="fil1" d="M83.87 74.48c-2.59,-0.18 -4.64,-1.8 -4.7,-3.61 0,-1.81 2.17,-3.13 4.7,-2.95 1.02,0.06 2.29,0.66 2.29,0.66l-0.06 0c-0.79,-0.12 -1.45,0.24 -1.51,0.78 0,0.55 0.54,1.15 1.39,1.27 0.78,0.12 1.44,-0.24 1.5,-0.78 0,-0.31 -0.18,-0.67 -0.42,-0.85 -1.02,-0.96 -2.71,-1.8 -4.4,-1.93 -3.07,-0.18 -5.48,1.39 -5.42,3.56 0,2.17 2.59,4.16 5.66,4.34 1.75,0.12 3.26,-0.43 4.22,-1.27 -0.9,0.54 -1.99,0.78 -3.19,0.72l-0.06 0.06z"/>
  </g>
 </g>
</svg>
