<?xml version="1.0" encoding="UTF-8"?>
<!DOCTYPE svg PUBLIC "-//W3C//DTD SVG 1.1//EN" "http://www.w3.org/Graphics/SVG/1.1/DTD/svg11.dtd">
<!-- Creator: CorelDRAW -->
<svg xmlns="http://www.w3.org/2000/svg" xml:space="preserve" width="128px" height="128px" version="1.1" style="shape-rendering:geometricPrecision; text-rendering:geometricPrecision; image-rendering:optimizeQuality; fill-rule:evenodd; clip-rule:evenodd"
viewBox="0 0 128 128.16"
 xmlns:xlink="http://www.w3.org/1999/xlink"
 xmlns:xodm="http://www.corel.com/coreldraw/odm/2003">
 <defs>
  <style type="text/css">
   <![CDATA[
    .fil0 {fill:#004185}
    .fil1 {fill:#FEFEFE;fill-rule:nonzero}
   ]]>
  </style>
 </defs>
 <g id="Layer_x0020_1">
  <metadata id="CorelCorpID_0Corel-Layer"/>
  <rect class="fil0" x="-0.66" y="0.27" width="128.28" height="128.28" rx="12.83" ry="9.98"/>
  <path class="fil1" d="M20.66 84.48l8.27 0 0 -28.62 11.35 28.62 3.02 0 11.29 -28.62 0 28.62 9.18 0 0 -40.76 -11.98 0 -9.4 25.37 -9.53 -25.37 -12.2 0 0 40.76zm68.42 0.63c11,0 17.22,-5.76 17.22,-16.88l0 -24.51 -9.3 0 0 23.94c0,7.47 -2.39,10.1 -7.86,10.1 -5.59,0 -7.59,-2.97 -7.59,-9.75l0 -24.29 -9.29 0 0 24.86c0,10.83 6.1,16.53 16.82,16.53z"/>
 </g>
</svg>
