<?xml version="1.0" encoding="UTF-8"?>
<svg id="Layer_1" xmlns="http://www.w3.org/2000/svg" version="1.1" viewBox="0 0 216 42.29">
  <!-- Generator: Adobe Illustrator 29.8.4, SVG Export Plug-In . SVG Version: 2.1.1 Build 6)  -->
  <defs>
    <style>
      .st0 {
        fill: #fff;
      }
    </style>
  </defs>
  <g>
    <path class="st0" d="M99.49,23.34v-10.43h1.9v10.23c0,2.98,1.15,4.2,3.58,4.2s3.58-.99,3.58-4.18v-10.25h1.9v10.43c0,3.31-1.68,5.57-5.48,5.57-3.4,0-5.48-2.03-5.48-5.57Z"/>
    <path class="st0" d="M112.35,12.92h2.43l7.05,12.73v-12.73h1.79v15.8h-2.15l-7.33-13.3v13.3h-1.79v-15.8Z"/>
    <path class="st0" d="M125.8,12.92h1.9v15.8h-1.9v-15.8Z"/>
    <path class="st0" d="M128.87,12.92h1.92l4.31,13.9,4.22-13.9h1.83l-4.97,15.8h-2.32l-4.99-15.8Z"/>
    <path class="st0" d="M142.22,12.92h8.68v1.55h-6.78v5.35h5.45v1.55h-5.45v5.81h7.18v1.55h-9.08v-15.8Z"/>
    <path class="st0" d="M152.69,12.92h4.66c2.76,0,5.06,1.21,5.06,4.28v.22c0,2.5-1.57,3.78-3.62,4.2l4.48,7.09h-2.12l-4.33-6.96h-2.23v6.96h-1.9v-15.8ZM157.2,20.27c2.12,0,3.31-.93,3.31-2.85v-.22c0-2.1-1.3-2.76-3.31-2.76h-2.61v5.83h2.61Z"/>
    <path class="st0" d="M163.25,23.83h1.83c.2,2.06.93,3.56,3.84,3.56,1.9,0,3.3-1.15,3.3-2.94s-.84-2.58-3.4-3.09l-.44-.09c-2.85-.57-4.62-1.61-4.62-4.37,0-2.47,1.97-4.18,4.79-4.18,3,0,4.86,1.46,5.13,4.42h-1.72c-.31-2.14-1.39-2.89-3.4-2.89s-3.03,1.04-3.03,2.56.55,2.27,3.25,2.81l.44.09c3.14.62,4.84,1.66,4.84,4.64,0,2.67-2.17,4.58-5.13,4.58-3.93,0-5.43-2.19-5.68-5.08Z"/>
    <path class="st0" d="M175.73,12.92h1.9v15.8h-1.9v-15.8Z"/>
    <path class="st0" d="M183.42,14.46h-4.29v-1.55h10.47v1.55h-4.29v14.25h-1.9v-14.25Z"/>
    <path class="st0" d="M195.09,21.82l-4.93-8.9h2.06l3.89,7.16,3.69-7.16h1.86l-4.66,8.93v6.87h-1.9v-6.89Z"/>
  </g>
  <g>
    <rect class="st0" x="30.73" y="12.92" width="3.62" height="15.79"/>
    <rect class="st0" x="57.95" y="12.92" width="3.62" height="15.79"/>
    <rect class="st0" x="77.3" y="12.92" width="3.62" height="15.79"/>
    <polygon class="st0" points="75.7 12.92 71.5 12.92 66.98 19.52 66.98 12.92 63.36 12.92 63.36 28.71 66.98 28.71 66.98 22.1 71.5 28.71 75.7 28.71 70.09 20.81 75.7 12.92"/>
    <polygon class="st0" points="39.76 25.09 39.76 12.92 36.15 12.92 36.15 28.71 45.66 28.71 45.66 25.09 39.76 25.09"/>
    <polygon class="st0" points="50.53 25.09 50.53 12.92 46.91 12.92 46.91 28.71 56.42 28.71 56.42 25.09 50.53 25.09"/>
    <polygon class="st0" points="23.51 12.92 23.51 12.92 20.71 21.31 17.91 12.92 17.91 12.92 12.48 12.92 12.48 28.71 16.1 28.71 16.1 18.61 19.77 28.71 21.65 28.71 25.32 18.61 25.32 28.71 28.94 28.71 28.94 12.92 23.51 12.92"/>
    <polygon class="st0" points="91.94 12.92 91.94 23.02 88.27 12.92 82.72 12.92 82.72 28.71 86.33 28.71 86.33 18.61 90.01 28.71 90.14 28.71 90.14 28.71 95.56 28.71 95.56 12.92 91.94 12.92"/>
  </g>
  <path class="st0" d="M201.07,28.19v-1.98l.49-.48h1.8l.48.48v1.98l-.48.48h-1.8l-.49-.48ZM203.22,28.35l.28-.28v-1.76l-.28-.28h-1.52l-.28.28v1.76l.28.28h1.52ZM201.85,26.39h.97l.25.26v.5l-.2.2.24.64h-.35l-.21-.56h-.35v.56h-.35v-1.61ZM202.64,27.15l.09-.08v-.3l-.09-.09h-.43v.47h.43Z"/>
</svg>