<?xml version="1.0" encoding="UTF-8"?>
<!DOCTYPE svg PUBLIC "-//W3C//DTD SVG 1.1//EN" "http://www.w3.org/Graphics/SVG/1.1/DTD/svg11.dtd">
<!-- Creator: CorelDRAW -->
<svg xmlns="http://www.w3.org/2000/svg" xml:space="preserve" width="2550px" height="3300px" version="1.1" style="shape-rendering:geometricPrecision; text-rendering:geometricPrecision; image-rendering:optimizeQuality; fill-rule:evenodd; clip-rule:evenodd"
viewBox="0 0 255000000 330000000"
 xmlns:xlink="http://www.w3.org/1999/xlink"
 xmlns:xodm="http://www.corel.com/coreldraw/odm/2003">
 <defs>
  <style type="text/css">
   <![CDATA[
    .fil1 {fill:none;fill-rule:nonzero}
    .fil2 {fill:#FEFEFE;fill-rule:nonzero}
    .fil0 {fill:#1868DB;fill-rule:nonzero}
    .fil3 {fill:white;fill-rule:nonzero}
   ]]>
  </style>
   <clipPath id="id0" style="clip-rule:nonzero">
    <path d="M118617000 172230000l14743000 0 0 -14858000 -14743000 0 0 14858000z"/>
   </clipPath>
 </defs>
 <g id="Layer_x0020_1">
  <metadata id="CorelCorpID_0Corel-Layer"/>
 </g>
 <g id="Layer_x0020_1_0">
  <metadata id="CorelCorpID_1Corel-Layer"/>
  <path class="fil0" d="M115625000 159297000c0,-3236000 2623000,-5859000 5859000,-5859000l11719000 0c3236000,0 5859000,2623000 5859000,5859000l0 11719000c0,3236000 -2623000,5859000 -5859000,5859000l-11719000 0c-3236000,0 -5859000,-2623000 -5859000,-5859000l0 -11719000z"/>
  <g id="_1978532624384">
  </g>
  <polygon class="fil1" points="118400000,172248000 133143000,172248000 133143000,157390000 118400000,157390000 "/>
  <path class="fil2" d="M134123000 174593000c-230000,0 -422000,-55000 -577000,-165000 -155000,-110000 -233000,-255000 -233000,-435000l0 -1605000 -1605000 0c-180000,0 -327000,-75000 -442000,-225000 -115000,-150000 -173000,-340000 -173000,-570000 0,-230000 58000,-423000 173000,-578000 115000,-155000 262000,-232000 442000,-232000l1605000 0 0 -1590000c0,-160000 78000,-303000 233000,-428000 155000,-125000 347000,-187000 577000,-187000 240000,0 433000,62000 578000,187000 145000,125000 217000,268000 217000,428000l0 1590000 1590000 0c160000,0 303000,77000 428000,232000 125000,155000 187000,348000 187000,578000 0,230000 -62000,420000 -187000,570000 -125000,150000 -268000,225000 -428000,225000l-1590000 0 0 1605000c0,180000 -72000,325000 -217000,435000 -145000,110000 -338000,165000 -578000,165000z"/>
  <g>
  </g>
  <g style="clip-path:url(#id0)">
   <g id="_1978532620976">
    <path class="fil3" d="M123358000 167458000l-1321000 0c-1992000,0 -3420000,-1220000 -3420000,-3006000l7101000 0c368000,0 606000,262000 606000,632000l0 7145000c-1775000,0 -2966000,-1437000 -2966000,-3442000l0 -1329000zm3507000 -3551000l-1320000 0c-1992000,0 -3421000,-1198000 -3421000,-2984000l7101000 0c368000,0 628000,239000 628000,610000l0 7145000c-1776000,0 -2988000,-1438000 -2988000,-3442000l0 -1329000zm3529000 -3529000l-1321000 0c-1991000,0 -3420000,-1220000 -3420000,-3006000l7101000 0c368000,0 606000,261000 606000,610000l0 7145000c-1775000,0 -2966000,-1437000 -2966000,-3442000l0 -1307000 0 0z"/>
   </g>
  </g>
  <polygon class="fil1" points="118617000,172230000 133360000,172230000 133360000,157372000 118617000,157372000 "/>
 </g>
</svg>
