<?xml version="1.0" encoding="UTF-8"?>
<!DOCTYPE svg PUBLIC "-//W3C//DTD SVG 1.1//EN" "http://www.w3.org/Graphics/SVG/1.1/DTD/svg11.dtd">
<!-- Creator: CorelDRAW -->
<svg xmlns="http://www.w3.org/2000/svg" xml:space="preserve" width="2550px" height="3300px" version="1.1" style="shape-rendering:geometricPrecision; text-rendering:geometricPrecision; image-rendering:optimizeQuality; fill-rule:evenodd; clip-rule:evenodd"
viewBox="0 0 255000000 330000000"
 xmlns:xlink="http://www.w3.org/1999/xlink"
 xmlns:xodm="http://www.corel.com/coreldraw/odm/2003">
 <defs>
  <style type="text/css">
   <![CDATA[
    .fil0 {fill:#FEFEFE;fill-rule:nonzero}
    .fil1 {fill:#1868DB;fill-rule:nonzero}
   ]]>
  </style>
 </defs>
 <g id="Layer_x0020_1">
  <metadata id="CorelCorpID_0Corel-Layer"/>
 </g>
 <g id="Layer_x0020_1_1">
  <metadata id="CorelCorpID_1Corel-Layer"/>
  <path class="fil0" d="M115625000 159297000c0,-3236000 2623000,-5859000 5859000,-5859000l11719000 0c3236000,0 5859000,2623000 5859000,5859000l0 11719000c0,3236000 -2623000,5859000 -5859000,5859000l-11719000 0c-3236000,0 -5859000,-2623000 -5859000,-5859000l0 -11719000z"/>
  <g id="_2016188623584">
  </g>
  <path class="fil1" d="M124388000 168597000l-1320000 0c-1992000,0 -3421000,-1220000 -3421000,-3006000l7101000 0c368000,0 606000,261000 606000,632000l0 7145000c-1775000,0 -2966000,-1438000 -2966000,-3442000l0 -1329000zm3508000 -3551000l-1321000 0c-1992000,0 -3421000,-1198000 -3421000,-2985000l7101000 0c369000,0 629000,240000 629000,611000l0 7145000c-1776000,0 -2988000,-1438000 -2988000,-3442000l0 -1329000zm3528000 -3529000l-1320000 0c-1992000,0 -3421000,-1220000 -3421000,-3007000l7101000 0c369000,0 607000,262000 607000,610000l0 7146000c-1776000,0 -2967000,-1438000 -2967000,-3442000l0 -1307000 0 0z"/>
 </g>
</svg>
