<?xml version="1.0" encoding="UTF-8"?>
<!DOCTYPE svg PUBLIC "-//W3C//DTD SVG 1.1//EN" "http://www.w3.org/Graphics/SVG/1.1/DTD/svg11.dtd">
<!-- Creator: CorelDRAW -->
<svg xmlns="http://www.w3.org/2000/svg" xml:space="preserve" width="400px" height="400px" version="1.1" style="shape-rendering:geometricPrecision; text-rendering:geometricPrecision; image-rendering:optimizeQuality; fill-rule:evenodd; clip-rule:evenodd"
viewBox="0 0 40000000 40000000"
 xmlns:xlink="http://www.w3.org/1999/xlink"
 xmlns:xodm="http://www.corel.com/coreldraw/odm/2003">
 <defs>
  <style type="text/css">
   <![CDATA[
    .fil1 {fill:none;fill-rule:nonzero}
    .fil0 {fill:#1868DB;fill-rule:nonzero}
    .fil2 {fill:#FEFEFE;fill-rule:nonzero}
    .fil3 {fill:white;fill-rule:nonzero}
   ]]>
  </style>
    <clipPath id="id0" style="clip-rule:nonzero">
     <path d="M5106000 32072000l25162000 0 0 -25358000 -25162000 0 0 25358000z"/>
    </clipPath>
 </defs>
 <g id="Layer_x0020_1_0">
  <metadata id="CorelCorpID_0Corel-Layer"/>
  <g id="_1504541113072">
   <path class="fil0" d="M0 10000000c0,-5523000 4477000,-10000000 9999000,-10000000l20001000 0c5523000,0 10000000,4477000 10000000,10000000l0 20001000c0,5522000 -4477000,9999000 -10000000,9999000l-20001000 0c-5522000,0 -9999000,-4477000 -9999000,-9999000l0 -20001000z"/>
   <polygon class="fil1" points="4736000,32103000 29898000,32103000 29898000,6745000 4736000,6745000 "/>
   <path class="fil2" d="M31571000 36105000c-393000,0 -721000,-93000 -985000,-281000 -265000,-188000 -398000,-435000 -398000,-743000l0 -2739000 -2739000 0c-307000,0 -558000,-128000 -754000,-384000 -197000,-256000 -296000,-580000 -296000,-973000 0,-392000 99000,-722000 296000,-986000 196000,-265000 447000,-396000 754000,-396000l2739000 0 0 -2714000c0,-273000 133000,-517000 398000,-730000 264000,-214000 592000,-319000 985000,-319000 409000,0 739000,105000 986000,319000 248000,213000 370000,457000 370000,730000l0 2714000 2714000 0c273000,0 517000,131000 731000,396000 213000,264000 319000,594000 319000,986000 0,393000 -106000,717000 -319000,973000 -214000,256000 -458000,384000 -731000,384000l-2714000 0 0 2739000c0,308000 -122000,555000 -370000,743000 -247000,188000 -577000,281000 -986000,281000z"/>
   <g>
   </g>
   <g style="clip-path:url(#id0)">
    <g>
     <path class="fil3" d="M13198000 23928000l-2255000 0c-3399000,0 -5837000,-2082000 -5837000,-5130000l12120000 0c628000,0 1034000,447000 1034000,1078000l0 12195000c-3029000,0 -5062000,-2453000 -5062000,-5875000l0 -2268000 0 0zm5985000 -6060000l-2253000 0c-3399000,0 -5838000,-2045000 -5838000,-5093000l12119000 0c628000,0 1072000,408000 1072000,1041000l0 12194000c-3031000,0 -5100000,-2454000 -5100000,-5874000l0 -2268000zm6023000 -6023000l-2254000 0c-3398000,0 -5837000,-2083000 -5837000,-5131000l12119000 0c628000,0 1034000,446000 1034000,1041000l0 12195000c-3029000,0 -5062000,-2453000 -5062000,-5875000l0 -2230000 0 0 0 0z"/>
    </g>
   </g>
   <polygon class="fil1" points="5106000,32072000 30268000,32072000 30268000,6714000 5106000,6714000 "/>
   <polygon class="fil1" points="5106000,32072000 30268000,32072000 30268000,6714000 5106000,6714000 "/>
  </g>
 </g>
</svg>
